<?xml version="1.0" encoding="UTF-8" standalone="no"?>
<!-- Created with Inkscape (http://www.inkscape.org/) -->

<svg
   width="16"
   height="16"
   viewBox="0 0 4.2333332 4.2333333"
   version="1.1"
   id="svg5"
   inkscape:version="1.2 (dc2aeda, 2022-05-15)"
   sodipodi:docname="examine-action-canvas.svg"
   inkscape:export-filename="turn-action.svg"
   inkscape:export-xdpi="96"
   inkscape:export-ydpi="96"
   xmlns:inkscape="http://www.inkscape.org/namespaces/inkscape"
   xmlns:sodipodi="http://sodipodi.sourceforge.net/DTD/sodipodi-0.dtd"
   xmlns="http://www.w3.org/2000/svg"
   xmlns:svg="http://www.w3.org/2000/svg">
  <sodipodi:namedview
     id="namedview7"
     pagecolor="#505050"
     bordercolor="#ffffff"
     borderopacity="1"
     inkscape:showpageshadow="0"
     inkscape:pageopacity="0"
     inkscape:pagecheckerboard="1"
     inkscape:deskcolor="#505050"
     inkscape:document-units="mm"
     showgrid="true"
     inkscape:zoom="44.984512"
     inkscape:cx="5.6019281"
     inkscape:cy="7.4247777"
     inkscape:window-width="1920"
     inkscape:window-height="982"
     inkscape:window-x="0"
     inkscape:window-y="0"
     inkscape:window-maximized="1"
     inkscape:current-layer="layer1"
     showguides="true">
    <inkscape:grid
       type="xygrid"
       id="grid132"
       empspacing="1"
       originx="0"
       originy="0" />
    <sodipodi:guide
       position="2.9104166,3.4395833"
       orientation="1,0"
       id="guide1679"
       inkscape:locked="false" />
    <sodipodi:guide
       position="2.38125,1.3229166"
       orientation="0,-1"
       id="guide1683"
       inkscape:locked="false" />
  </sodipodi:namedview>
  <defs
     id="defs2">
    <inkscape:path-effect
       effect="powerclip"
       id="path-effect2959"
       is_visible="true"
       lpeversion="1"
       inverse="true"
       flatten="false"
       hide_clip="false"
       message="Use fill-rule evenodd on &lt;b&gt;fill and stroke&lt;/b&gt; dialog if no flatten result after convert clip to paths." />
    <clipPath
       clipPathUnits="userSpaceOnUse"
       id="clipPath2955">
      <circle
         style="display:none;fill:#bebebe;fill-opacity:1;stroke:none;stroke-width:1.05833;stroke-linecap:round;stroke-linejoin:bevel"
         id="circle2957"
         cx="1.5875"
         cy="1.5875"
         r="0.79374999"
         d="M 2.38125,1.5875 A 0.79374999,0.79374999 0 0 1 1.5875,2.38125 0.79374999,0.79374999 0 0 1 0.79374999,1.5875 0.79374999,0.79374999 0 0 1 1.5875,0.79374999 0.79374999,0.79374999 0 0 1 2.38125,1.5875 Z" />
      <path
         id="lpe_path-effect2959"
         style="fill:#bebebe;fill-opacity:1;stroke:none;stroke-width:1.05833;stroke-linecap:round;stroke-linejoin:bevel"
         class="powerclip"
         d="M -4.7354167,-4.7354167 H 7.9104166 V 7.9104166 H -4.7354167 Z M 2.38125,1.5875 A 0.79374999,0.79374999 0 0 0 1.5875,0.79374999 0.79374999,0.79374999 0 0 0 0.79374999,1.5875 0.79374999,0.79374999 0 0 0 1.5875,2.38125 0.79374999,0.79374999 0 0 0 2.38125,1.5875 Z" />
    </clipPath>
  </defs>
  <g
     inkscape:label="Layer 1"
     inkscape:groupmode="layer"
     id="layer1">
    <path
       style="fill:#ffffff;fill-opacity:1;stroke:none;stroke-width:1.05833;stroke-linecap:round;stroke-linejoin:bevel"
       id="path2525"
       clip-path="url(#clipPath2955)"
       inkscape:path-effect="#path-effect2959"
       sodipodi:type="arc"
       sodipodi:cx="1.5875"
       sodipodi:cy="1.5875"
       sodipodi:rx="1.3229166"
       sodipodi:ry="1.3229166"
       d="M 2.9104166,1.5875 A 1.3229166,1.3229166 0 0 1 1.5875,2.9104166 1.3229166,1.3229166 0 0 1 0.26458335,1.5875 1.3229166,1.3229166 0 0 1 1.5875,0.26458335 1.3229166,1.3229166 0 0 1 2.9104166,1.5875 Z" />
    <path
       style="fill:#ffffff;stroke:none;stroke-width:0.264583px;stroke-linecap:butt;stroke-linejoin:miter;stroke-opacity:1;fill-opacity:1"
       d="M 3.4395833,3.96875 3.96875,3.4395833 2.6458333,2.1166666 2.1166666,2.6458333 Z"
       id="path2527" />
  </g>
</svg>
