<svg xmlns="http://www.w3.org/2000/svg" width="64" height="64" viewBox="0 0 16.933 16.933" xmlns:v="https://vecta.io/nano"><path d="M1.058 15.875l2.117-2.117 2.117 2.117 2.117-2.117 2.117 2.117 2.117-2.117 2.117 2.117 2.117-2.117" fill="none" stroke="#939393" stroke-width="1.058"/><path d="M1.058 11.642V9.525h2.117v-6.35H1.058V1.058h6.35v2.117H5.292v6.35h2.117v2.117zm8.467 0V1.058h6.35v2.117h-4.233v2.117h4.233v2.117h-4.233v4.233z" fill="#ad60f3"/><g fill="#31c9ed" stroke="#31c9ed" stroke-width=".5" stroke-linejoin="bevel"><circle cx="1.058" cy="15.875" r="1.058"/><circle cx="3.175" cy="13.758" r="1.058"/><circle cx="5.292" cy="15.875" r="1.058"/><circle cx="7.408" cy="13.758" r="1.058"/><circle cx="9.525" cy="15.875" r="1.058"/><circle cx="11.642" cy="13.758" r="1.058"/><circle cx="13.758" cy="15.875" r="1.058"/><circle cx="15.875" cy="13.758" r="1.058"/></g></svg>